# xmcd
#
# Track frame offsets:
#	150
#	10132
#	22454
#	36922
#	48269
#	61149
#	73081
#	84150
#	100234
#	109909
#	125993
#	137145
#	150582
#	162514
#	174669
#	186351
#	199872
#	213727
#	224350
#	237341
#	246766
#	261095
#	273222
#	287662
#	297978
#	308517
#	322456
#	333107
#
# Disc length: 4610 seconds
#
# Revision: 0
# Processed by: cddbd v1.5.1PL0 Copyright (c) Steve Scherf et al.
# Submitted via: dBpowerAMP V4.0
#
DISCID=b412001c
DTITLE=charley pride - 30 years of pride
DYEAR=1900
DGENRE=
TTITLE0=001someone loves you honey
TTITLE1=002 let the chips fall
TTITLE2=003 amazing love
TTITLE3=004 missing you
TTITLE4=005 mountain of love
TTITLE5=006 could i live there anymore
TTITLE6=007 mississippi cotton picking delta town
TTITLE7=008 me and bobby mcgee
TTITLE8=009 don't fight the feelings
TTITLE9=010 you're my jamaica
TTITLE10=011 wings of a dove
TTITLE11=012  I aint all bad
TTITLE12=013 she's just an old love
TTITLE13=014 my eyes can only see as far as you
TTITLE14=015 the day the world stood still
TTITLE15=016 all his children
TTITLE16=017 hope you're feeling me
TTITLE17=018 the happiness of having you
TTITLE18=019 crystal chandeliers
TTITLE19=020 kiss an angel good morning
TTITLE20=021 a shoulder to cry on
TTITLE21=022 gonna take a little bit longer
TTITLE22=023 afraid of losing you
TTITLE23=024 going to san antone
TTITLE24=025 just between you and me
TTITLE25=026 all i have to offer you is me
TTITLE26=027 does my ring hurt your finger
TTITLE27=028 i rather love you
EXTD=
EXTT0=
EXTT1=
EXTT2=
EXTT3=
EXTT4=
EXTT5=
EXTT6=
EXTT7=
EXTT8=
EXTT9=
EXTT10=
EXTT11=
EXTT12=
EXTT13=
EXTT14=
EXTT15=
EXTT16=
EXTT17=
EXTT18=
EXTT19=
EXTT20=
EXTT21=
EXTT22=
EXTT23=
EXTT24=
EXTT25=
EXTT26=
EXTT27=
PLAYORDER=
